# xmcd
#
# Track frame offsets:
#	150
#	29222
#	48108
#	71613
#	92039
#	114767
#	145621
#	161756
#	187500
#	217473
#	227980
#	246078
#	266225
#	281547
#	307077
#	332765
#
# Disc length: 4656 seconds
# Revision: 0
# Processed by: cddbd v1.5.2PL0 Copyright (c) Steve Scherf et al.
# Submitted via: dBpowerAMP V12.0
#
DISCID=ee122e10
DTITLE=Evil Sons Of The Blues - Live
DYEAR=2013
DGENRE=Blues
TTITLE0=Love In Vain
TTITLE1=Baby Please Don't Go
TTITLE2=Everyday I Have The Blues
TTITLE3=Albatross
TTITLE4=That's The Truth
TTITLE5=My Babe
TTITLE6=She Caught The katy
TTITLE7=Help Me
TTITLE8=Walking The Dog
TTITLE9=Little Biity Pretty One
TTITLE10=Madison Blues
TTITLE11=Can't Stop Lovin'
TTITLE12=Person To Person
TTITLE13=Who Do You Love?
TTITLE14=I Live The Life I Love
TTITLE15=Rather Go Blind
EXTD=
EXTT0=
EXTT1=
EXTT2=
EXTT3=
EXTT4=
EXTT5=
EXTT6=
EXTT7=
EXTT8=
EXTT9=
EXTT10=
EXTT11=
EXTT12=
EXTT13=
EXTT14=
EXTT15=
PLAYORDER=
